<?xml version="1.0" encoding="utf-8"?>
<!-- Generator: Adobe Illustrator 21.0.0, SVG Export Plug-In . SVG Version: 6.00 Build 0)  -->
<svg version="1.1" id="_x30_1_1_" opacity="0.1" xmlns="http://www.w3.org/2000/svg" xmlns:xlink="http://www.w3.org/1999/xlink"
	 x="0px" y="0px" viewBox="0 0 164 108" style="enable-background:new 0 0 164 108;" xml:space="preserve">
<style type="text/css">
	.st0{fill-rule:evenodd;clip-rule:evenodd;fill:#534A40;}
</style>
<g id="_x30_1">
	<g>
		<path class="st0" d="M80.8,10.4C74,4.2,64,1.1,54.9,0.5c-5-0.2-9.4,4.3,0,4.3c8.9,0,16.8,2.4,22.4,7.8c10,9.4,11.5,26.1,3.7,47.2
			c-8.5,23.3-30,42.7-49.4,42.7c-28.7,0-26.5-42-11.7-62.9c10.5-14.8,26.5-26.1,40.7-26.1c3.1,0,7.4,0.9,9.6,4.3
			c0.9,1.5,1.8-1.3,1.3-3.5C70.8,10.4,67,7,62.3,6.7C49.4,5,29.6,15.2,19.6,25.3c-28.3,28.9-25,79.9,11.5,82.1
			c25.9,1.3,48.1-17.9,58.3-42.5C98.2,43.3,94.7,21.8,80.8,10.4z M152,3.5c-3.9,5.5-8.5,11.1-13.1,16.3c-5.4,5.9-11.7,12-16.8,16.5
			c-3.7,3.1-2.2,4.6,0.4,3c7-4.6,15.5-12,22.2-18.5c-10.4,24-25.3,63.1-28.5,77.5c-2.2,0.2-4.3,0.4-6.1,0.4
			c-4.1,0.6-7.4,0.6-10.2,1.5c-5,1.3-7.2,7.8-3.7,7c6.5-1.1,13.1-2.8,19.8-3.9c1.1,1.8,5.2,0.6,6.3-0.7v-0.2
			c7.4-0.7,15-0.2,21.5-0.2c4.6,0,4.4-3,1.7-3.5c-6.5-0.9-14.6-0.9-22.2-0.7c5.5-20.5,24.8-61.2,40-91.2
			C164.3,4.4,154.8-0.2,152,3.5z"/>
	</g>
</g>
</svg>
