<?xml version="1.0" encoding="utf-8"?>
<!-- Generator: Adobe Illustrator 21.0.0, SVG Export Plug-In . SVG Version: 6.00 Build 0)  -->
<svg version="1.1" id="_x30_2_1_" opacity="0.1" xmlns="http://www.w3.org/2000/svg" xmlns:xlink="http://www.w3.org/1999/xlink"
	 x="0px" y="0px" viewBox="0 0 205 108" style="enable-background:new 0 0 205 108;" xml:space="preserve">
<style type="text/css">
	.st0{fill-rule:evenodd;clip-rule:evenodd;fill:#534A40;}
</style>
<g id="_x30_2">
	<g>
		<path class="st0" d="M80.7,10.4c-6.8-6.1-16.8-9.2-25.9-9.8c-5-0.2-9.4,4.3,0,4.3c8.9,0,16.8,2.4,22.4,7.8
			c10,9.4,11.5,26.1,3.7,47.2c-8.5,23.3-30,42.7-49.4,42.7c-28.7,0-26.5-42-11.7-62.9c10.5-14.8,26.5-26.1,40.7-26.1
			c3.1,0,7.4,0.9,9.6,4.3c0.9,1.5,1.8-1.3,1.3-3.5c-0.7-3.9-4.6-7.2-9.2-7.6C49.2,5,29.4,15.2,19.4,25.3
			c-28.3,28.9-25,79.9,11.5,82.1c25.9,1.3,48.1-17.9,58.3-42.5C98.1,43.3,94.5,21.8,80.7,10.4z M194.6,92.1
			c-1.8,6.3-18.9,7.2-29.6,5.7c-7.4-0.9-21.8-6.7-34.8-8.7c16.6-8.9,43.1-23.7,59.8-39.8c33.9-32.9,5.2-52.7-32.4-45.3
			c-8.5,1.7-37,12.4-30.7,25.3c0.7,1.7,1.5,2.8,2.6,3.7c2.6,2.6,3.1-0.4,2.2-2.4c-4.8-10,20-18.5,25.7-20.2
			c29.6-7.6,49,10.2,22.4,37.7c-16.1,16.6-40.9,31.6-55.7,40.3c-10.4-0.6-18.7,2.4-18.9,14.4c-0.4,6.3,14.1-7.2,15.2-8.5
			c3.9,1.5,35.3,9.6,40,10.5c10.5,1.8,20.7,2.4,29.6-4.1c2.8-2.2,7-5,8-8.3C199.1,89.2,195.5,89.2,194.6,92.1z"/>
	</g>
</g>
</svg>
