<?xml version="1.0" encoding="utf-8"?>
<!-- Generator: Adobe Illustrator 21.0.0, SVG Export Plug-In . SVG Version: 6.00 Build 0)  -->
<svg version="1.1" id="_x30_3_1_" opacity="0.1" xmlns="http://www.w3.org/2000/svg" xmlns:xlink="http://www.w3.org/1999/xlink"
	 x="0px" y="0px" viewBox="0 0 260 143" style="enable-background:new 0 0 260 143;" xml:space="preserve">
<style type="text/css">
	.st0{fill-rule:evenodd;clip-rule:evenodd;fill:#534A40;}
</style>
<g id="_x30_3">
	<g>
		<path class="st0" d="M106.6,13.4c-9-8.1-22.2-12.2-34.2-12.9c-6.6-0.2-12.4,5.6,0,5.6c11.7,0,22.2,3.2,29.5,10.2
			c13.2,12.4,15.1,34.4,4.9,62.2C95.6,109.3,67.3,135,41.7,135C3.9,135,6.8,79.6,26.3,52C40.2,32.5,61.2,17.6,80,17.6
			c4.1,0,9.8,1.2,12.7,5.6c1.2,2,2.4-1.7,1.7-4.6c-1-5.1-6.1-9.5-12.2-10C65.1,6.4,39,19.8,25.8,33.2C-11.5,71.3-7.1,138.6,41,141.5
			c34.2,1.7,63.4-23.7,76.9-56.1C129.5,56.9,124.9,28.6,106.6,13.4z M231,62.5c22-7.1,31.2-25.1,27.6-38.8
			C255,10.3,240.6,4.2,224.5,4.2c-25.4,0-45.6,11-45.6,31.2c0,4.1,5.4,1.5,5.4-1.2c0-15.6,23.4-22.4,35.9-22.4
			c15.6,0.5,25.4,9.5,25.4,20c0,6.6-3.9,14.2-12.9,20c-11.5,7.3-25.6,7.6-35.9,5.6c-8.3-1.7-10,8.8-1.2,9.8
			c5.9,0.5,13.9-2.4,22.9-2.9c13.9,3.7,20.7,11.7,20.7,20.7c0,29.3-32.5,52.9-58.6,53.2c-10.2,0-25.4-4.9-26.4-19
			c0-2.7,0.2-5.1,1.2-7.6c1.2-4.1-6.3-7.3-9-1c-1.2,2.9-2,5.6-2,8.5c0.2,20.7,21.5,23.7,35.6,23.7c31.5,0,73.2-22,73.2-56.9
			C253.2,72,243.5,63,231,62.5z"/>
	</g>
</g>
</svg>
