<?xml version="1.0" encoding="utf-8"?>
<!-- Generator: Adobe Illustrator 21.0.0, SVG Export Plug-In . SVG Version: 6.00 Build 0)  -->
<svg version="1.1" id="_x30_4_1_" opacity="0.1" xmlns="http://www.w3.org/2000/svg" xmlns:xlink="http://www.w3.org/1999/xlink"
	 x="0px" y="0px" viewBox="0 0 249 146" style="enable-background:new 0 0 249 146;" xml:space="preserve">
<style type="text/css">
	.st0{fill-rule:evenodd;clip-rule:evenodd;fill:#534A40;}
</style>
<g id="_x30_4">
	<g>
		<path class="st0" d="M105.8,14.4c-9-8.1-22.2-12.2-34.2-12.9c-6.6-0.2-12.4,5.6,0,5.6c11.7,0,22.2,3.2,29.5,10.2
			c13.2,12.4,15.1,34.4,4.9,62.2C94.8,110.3,66.5,136,40.9,136C3.1,136,6,80.6,25.6,53c13.9-19.5,34.9-34.4,53.7-34.4
			c4.1,0,9.8,1.2,12.7,5.6c1.2,2,2.4-1.7,1.7-4.6c-1-5.1-6.1-9.5-12.2-10C64.3,7.4,38.2,20.8,25.1,34.2
			C-12.3,72.3-7.9,139.6,40.2,142.5c34.2,1.7,63.4-23.7,76.9-56.1C128.8,57.9,124.1,29.6,105.8,14.4z M243.7,68.1
			c-2.4,8.5-23.4,13.7-37.8,14.6c11.7-26.1,25.6-51.2,36.4-73.2c1.2-2.2-1.5-5.6-4.9-7.3c-6.3-3.7-6.8,0-10,4.1
			c-9,10.5-28.1,30-48.6,44.9l-42.9,31c-6.6,3.7-9.5,9.3-9.5,14.6c0,3.2,5.4-0.7,10.7-4.9c4.1-2.9,10.5-3.9,18.3-2.9l36.8,3.7
			c-8.5,23.2-15.4,44.9-14.4,51.5c1.5,2.7,6.8,1,8.3-0.5V143c2.7-15.9,8.3-32.7,15.1-49.8c12.9,0,25.4-2.4,36.4-12.2
			c3.7-3.2,9.3-8.1,10.5-12.7C249.5,63.2,244.9,64,243.7,68.1z M196.1,82.3c-12.2-1.2-30.3-4.9-45.4-3.7c9.8-6.3,18.3-11.2,31-21
			c13.9-10.2,32.5-25.9,36.1-29.5C214.4,35.4,204.9,58.6,196.1,82.3z"/>
	</g>
</g>
</svg>
