<?xml version="1.0" encoding="utf-8"?>
<!-- Generator: Adobe Illustrator 21.0.0, SVG Export Plug-In . SVG Version: 6.00 Build 0)  -->
<svg version="1.1" id="about_1_" opacity="0.1" xmlns="http://www.w3.org/2000/svg" xmlns:xlink="http://www.w3.org/1999/xlink"
	 x="0px" y="0px" viewBox="0 0 475 154" style="enable-background:new 0 0 475 154;" xml:space="preserve">
<style type="text/css">
	.st0{fill-rule:evenodd;clip-rule:evenodd;fill:#534A40;}
</style>
<g id="about">
	<g>
		<path class="st0" d="M211.7,27.6c5.1-10,6.3-19-3.2-24.6l-4.9-1.7c-16.8-4.6-30.3,11.2-38.3,23.9c-11,17.1-25.1,49.5-30,63.2
			c-2.2,4.9-10.2,15.8-22,30.5c-9.7,10.4-21.3,19.6-27.2,22.9c-7.8,4.1-12.7-1.5-11.2-12c1-7.8,5.9-22.9,14.6-35.4
			c2.2-3.9-7.3-5.9-9.8-5.9c-2.2,0-20.7,20.5-24.2,24.2c-6.3,6.8-17.3,16.1-23.7,21.5c-3.4,2.7-15.4,11.5-18.8,6.6
			c-7.6-10.7,12.7-33.9,19.5-40.3c12.7-11.2,29.8-21,42.5-21c4.6,0,9.5,0.5,12.2,4.6c1.2,0.5,1.5,0.5,1.5-1.2c0-2.4-1.7-4.9-4.1-6.6
			c-6.3-4.4-17.1-3.9-24.4-2c-18.3,4.4-73.9,41-55.9,63.9c3.7,4.9,10.5,8.3,15.6,8.3c19.5,0,42.7-34.2,46.8-36.1
			c-3.2,8.5-6.1,23.2-3.9,29.8c4.9,14.6,22.9,8.8,30.7,2.9c11.9-8.6,26.5-24,31.3-32.7c0.9-1.4,1.8-2.7,2.8-3.9
			c-2.2,8.5-5.1,26.6-2,31.2c6.6,9,10.7-0.7,9.8-2.9c-1.7-11,15.9-30.5,23.2-36.6c7.1-6.1,18.8-15.4,28.8-15.4
			c7.3,0,4.1,12.7,2.7,16.6c-4.1,13.4-16.3,25.6-26.1,32.5c-9.5,7.1-26.4,17.6-38.6,17.6c-21.7,0-4.1,4.1,3.4,4.1
			c14.9,0,29-5.9,41.2-14.2c13.4-8.8,37.1-29.5,34.6-48.1c-1-6.1-12-13.4-17.3-13.4c-10.5,0-19,4.9-29.5,13.9
			c-6.6,5.6-15.9,15.4-22,24.4c1.5-7.8,4.1-16.8,7.6-22.9C166.8,77.4,202.5,46.4,211.7,27.6z M195.1,11.3
			c14.6-11.7,16.8,2.4,10,13.4c-11.7,19.3-36.6,44.4-58.8,59C158.8,55.7,174.4,27.1,195.1,11.3z M434,94.5c0.7-2.2,3.7-6.3,6.8-12.2
			c11.5-1.2,23.9-2.9,27.6-4.1c10.2-2.4,5.1-4.1,2.2-4.1c-9.3-0.2-15.4,1-22.9,1.7l-3.2,0.2l11.7-20.5c1.5-2.9,3.9-2.7,5.1-5.1
			c1.5-2.2,4.4-7.1,2.2-10c-1.5-2.2-6.1-2.9-9.8-2.4c-3.4,0.5-3.9,2.9-10,13.4L431.6,74c-0.5,0-0.7,0-1,0.5
			c-4.6,0.2-11,0.2-12.9,4.4c-1.5,3.2,1,5.4,3.4,5.4c1.2,0,3.2,0,5.6-0.5c-3.2,5.9-5.4,9.8-5.4,10.2c-3.4,5.2-9.2,13.2-16.7,22.6
			c-10,11.3-22.9,21.7-29.1,25.2c-8.1,4.1-12.9-1.5-11.5-12c1.2-8.8,4.1-17.1,7.8-24.2c3.2-6.3,12.2-21.5,15.1-26.4
			c2.4-4.4-9.5-6.6-12.7-6.6c-3.2,4.9-11.5,20.5-15.9,26.8c-9,13.2-19.5,27.3-28.5,34.6c-17.1,13.7-28.1,8.1-20.3-12.7
			c6.1-16.3,18.5-29.3,23.9-34.2c1.7-1.2,3.4-3.7,0.5-4.9c-3.4-1.2-9-1.2-13.2,0c-2.2,0.7-8.3,9.8-11.7,15.1c-2,3.1-3.8,6.4-5.4,9.8
			c-0.2,0.1-0.3,0.3-0.5,0.4c-2.4,3.4-5.6,7.1-8.5,10.5c-4.9,5.1-12.9,14.2-20.7,14.2c-3.2,0-5.9-2-6.1-6.6
			c5.4-7.6,13.9-22.7,10.5-32.7c-2-6.6-12.7-4.1-10,2.7c1.2,2.9,3.2,8.1-3.4,21.2c-4.1-1.2-7.6,2.7-6.1,7.8c0,0.7,0.5,1,0.7,1.5
			c-7.3,11-17.8,19-25.4,19c-9,0-12-8.3-10.2-17.8c3.9-22.2,27.3-47.1,38.1-47.1c4.6,0,5.1,3.9,4.6,6.6c0,2,3.7,2.2,4.1-1.7
			c1-6.1-2.7-10.2-7.1-11.7c-7.3-2.7-18.3,1.2-27.3,9.3c-11,9.8-19,22.7-21.5,32c-4.4,15.1-1.5,26.6,6.6,31.5
			c8.1,5.1,21.2,4.4,32.2-4.9c3.2-2.9,6.3-6.1,9.5-9.5c1.7,3.7,5.9,6.1,10,6.1c9.5,0,19.3-10.5,24.6-17.1c0.6-0.7,1.2-1.4,1.7-2.1
			c-1.9,7.6-1.9,14.8,1,19.4c3.2,5.1,12.2,8.3,17.1,8.3c20,0,35.1-35.4,38.8-37.8c-3.4,8.5-6.3,24.9-4.1,31.5
			c4.9,14.6,22.7,8.8,30.7,2.9c11.3-8.1,24.8-22.5,30.5-31.3c0.4-0.6,0.8-1.1,1.2-1.6c-5.1,11.2-9.3,24.4-7.3,30
			c4.9,14.6,22.9,8.8,30.7,2.9c12.2-8.8,27.1-24.9,31.7-33.4c1.2-2.2-1.7-3.7-2.9-2c-10.2,14.2-28.5,29.5-36.4,33.9
			c-8.1,4.1-12.9-1.5-11.2-12C420.1,122,426.7,109.1,434,94.5z"/>
	</g>
</g>
</svg>
