<?xml version="1.0" encoding="utf-8"?>
<!-- Generator: Adobe Illustrator 21.0.0, SVG Export Plug-In . SVG Version: 6.00 Build 0)  -->
<svg version="1.1" id="contact_1_" opacity="0" xmlns="http://www.w3.org/2000/svg" xmlns:xlink="http://www.w3.org/1999/xlink"
	 x="0px" y="0px" viewBox="0 0 682 134" style="enable-background:new 0 0 682 134;" xml:space="preserve">
<style type="text/css">
	.st0{fill-rule:evenodd;clip-rule:evenodd;fill:#FFFFFF;}
</style>
<g id="contact">
	<g>
		<path class="st0" d="M633.9,67.5c0.9-2.6,4.3-7.5,8.1-14.4c13.5-1.4,28.2-3.5,32.5-4.9c12.1-2.9,6-4.9,2.6-4.9
			c-10.9-0.3-18.1,1.2-27.1,2l-3.7,0.3l13.8-24.2c1.7-3.5,4.6-3.2,6-6c1.7-2.6,5.2-8.4,2.6-11.8c-1.7-2.6-7.2-3.5-11.5-2.9
			c-4,0.6-4.6,3.5-11.8,15.8l-14.4,26.8c-0.6,0-0.9,0-1.2,0.6c-5.5,0.3-13,0.3-15.3,5.2c-1.7,3.7,1.2,6.3,4,6.3c1.4,0,3.7,0,6.6-0.6
			c-3.7,6.9-6.3,11.5-6.3,12.1c-3.6,5.5-9.6,13.9-17.4,23.7c-14.1,16.9-27.8,27.9-50.6,34.5c-16.4,4.6-33.1,2.9-26.5-18.4
			c7.8-26.2,43.5-55.6,58.2-55.6c2.9,0,4.3,3.2,4.3,5.8c0,1.7-1.2,3.7-1.4,5.8c-0.3,0.9,0,2.3,1.2,3.2c2,2.6,6.9-8.1,7.2-9.8
			c2-7.5-2.3-11.2-7.5-13c-18.1-6-52.4,19.5-68.1,39.5c-0.5,0.1-0.9,0.4-1.3,0.8c-11.8,16.7-33.4,34.8-42.9,40
			c-9.2,4.9-15-1.7-13.2-14.1c1.2-9.2,6.9-27.1,17.3-41.8c2.6-4.6-8.6-6.9-11.5-6.9c-2.6,0-24.5,24.2-28.5,28.5
			c-7.5,8.1-20.4,19-27.9,25.3c-4,3.2-18.1,13.5-22.2,7.8c-8.9-12.7,15-40,23-47.5C426,61.5,446.2,50,461.1,50
			c5.5,0,11.2,0.6,14.4,5.5c1.4,0.6,1.7,0.6,1.7-1.4c0-2.9-2-5.8-4.9-7.8c-7.5-5.2-20.2-4.6-28.8-2.3c-15.1,3.6-51.7,25.8-65.1,48.1
			c-12.2,13.9-28.3,27.1-36,31.4c-9.5,4.9-15.3-1.7-13.2-14.1c0.9-9.2,8.6-24.5,17.3-41.8c0.9-2.6,4.3-7.5,8.1-14.4
			c13.5-1.4,28.2-3.5,32.5-4.9c12.1-2.9,6-4.9,2.6-4.9c-10.9-0.3-18.1,1.2-27.1,2l-3.7,0.3l13.8-24.2c1.7-3.5,4.6-3.2,6-6
			c1.7-2.6,5.2-8.4,2.6-11.8c-1.7-2.6-7.2-3.5-11.5-2.9c-4,0.6-4.6,3.5-11.8,15.8l-14.4,26.8c-0.6,0-0.9,0-1.2,0.6
			c-5.5,0.3-13,0.3-15.3,5.2c-1.7,3.7,1.2,6.3,4,6.3c1.4,0,3.7,0,6.6-0.6c-3.7,6.9-6.3,11.5-6.3,12.1c-3.9,6-10.7,15.4-19.5,26.3
			c-12,13.4-27.6,26-35,30.2c-9.2,4.9-15-1.7-13.2-14.1c0.9-5.5,2.9-13.2,6.6-21.9c3.7-9.8,10.4-18.7,13.5-28.5
			c5.8-17.3-6.3-19.3-23-6.9c-15.8,12.4-40.9,39.5-53,54.4c3.5-9.2,12.7-34.8,19.9-50.7c2.3-4.6,2.6-7.2-2-8.4
			c-15-4-13.8,9.5-15.3,13c-1.9,5.1-4.9,13.8-8.3,23.3c-2.9,4-6.5,8.2-9.9,12.1c-5.8,6-15.3,16.7-24.5,16.7c-3.7,0-6.9-2.3-7.2-7.8
			c6.3-8.9,16.4-26.8,12.4-38.6c-2.3-7.8-15-4.9-11.8,3.2c1.4,3.5,3.7,9.5-4,25.1c-4.9-1.4-8.9,3.2-7.2,9.2c0,0.9,0.6,1.2,0.9,1.7
			c-8.6,13-21,22.5-30,22.5c-10.7,0-14.1-9.8-12.1-21c4.6-26.2,32.3-55.6,44.9-55.6c5.5,0,6,4.6,5.5,7.8c0,2.3,4.3,2.6,4.9-2
			c1.2-7.2-3.2-12.1-8.4-13.8c-8.6-3.2-21.6,1.4-32.3,10.9c-9.8,8.7-17.6,19.5-22,29c-0.1,0.1-0.3,0.2-0.4,0.4
			c-16.4,21-30.5,34.3-56.4,41.8c-16.4,4.6-33.1,2.9-26.5-18.4C26,80.5,61.7,51.1,76.4,51.1c2.9,0,4.3,3.2,4.3,5.8
			c0,1.7-1.2,3.7-1.4,5.8c-0.3,0.9,0,2.3,1.2,3.2c2,2.6,6.9-8.1,7.2-9.8c2-7.5-2.3-11.2-7.5-13C58.5,35.9,13.9,73.6,5.2,93.2
			c-13,30,7.8,44.4,35.4,39.5c24.2-4.2,41.6-18.1,56.3-35.8c-3.2,15.3,0.4,26.9,9,32.1c9.5,6,25.1,5.2,38-5.8
			c3.7-3.5,7.5-7.2,11.2-11.2c2,4.3,6.9,7.2,11.8,7.2c11.2,0,22.8-12.4,29.1-20.2c0.5-0.6,0.9-1.1,1.4-1.6
			c-5.6,15.9-10.8,30.9-12,33.9c-2.9,5.5,12.4-1.4,15.3-2.9c5.5-3.2,29.7-41.2,46.1-56.2c21-18.1,22.2-10.9,17-1.7
			c-7.2,13.2-30.8,59-0.6,61.9c8.1,0.9,17.6-3.2,23-7.2c13.3-9.6,29.2-26.5,35.9-36.9c0.5-0.7,1-1.3,1.5-1.9
			c-6,13.2-10.9,28.8-8.6,35.4c5.8,17.3,27.1,10.4,36.3,3.5c7.2-5.2,15.3-12.6,22.1-19.9c-0.5,5,0.6,9.8,4.1,14.2
			c4.3,5.8,12.4,9.8,18.4,9.8c23,0,50.4-40.3,55.3-42.6c-3.7,10.1-7.2,27.4-4.6,35.1c5.8,17.3,27.1,10.4,36.3,3.5
			c8.4-6.1,18.1-15.1,25.7-23.6c-6,24.2,13.3,35.5,38.3,31.1c28.4-4.9,47.3-23.1,63.7-45.2c-5.8,13-10.3,27.8-8.1,34.2
			c5.8,17.3,27.1,10.4,36.3,3.5c14.4-10.4,32-29.4,37.4-39.5c1.4-2.6-2-4.3-3.5-2.3c-12.1,16.7-33.7,34.8-42.9,40
			c-9.5,4.9-15.3-1.7-13.2-14.1C617.5,100.1,625.3,84.8,633.9,67.5z"/>
	</g>
</g>
</svg>
