<?xml version="1.0" encoding="utf-8"?>
<!-- Generator: Adobe Illustrator 21.0.0, SVG Export Plug-In . SVG Version: 6.00 Build 0)  -->
<svg version="1.1" id="Fill_1_1_" xmlns="http://www.w3.org/2000/svg" xmlns:xlink="http://www.w3.org/1999/xlink" x="0px" y="0px"
	 viewBox="0 0 31 31" style="enable-background:new 0 0 31 31;" xml:space="preserve">
<style type="text/css">
	.st0{fill-rule:evenodd;clip-rule:evenodd;fill:#FEFEFE;}
</style>
<g id="Fill_1">
	<g>
		<path class="st0" d="M25,0H6C2.7,0,0,2.7,0,6V25c0,3.3,2.7,6,6,6h9.6V18.1h-2.8v-4h2.8v-2.7c0-1.2,0-3,0.9-4.1
			c0.9-1.2,2.1-2,4.3-2c3.5,0,5,0.5,5,0.5L25,9.9c0,0-1.2-0.3-2.2-0.3c-1.1,0-2,0.4-2,1.5v3.1h4.4l-0.3,4h-4.1V31H25
			c3.3,0,6-2.7,6-6V6C31,2.7,28.3,0,25,0z"/>
	</g>
</g>
</svg>
