<?xml version="1.0" encoding="utf-8"?>
<!-- Generator: Adobe Illustrator 21.0.0, SVG Export Plug-In . SVG Version: 6.00 Build 0)  -->
<svg version="1.1" id="Fill_1_1_" xmlns="http://www.w3.org/2000/svg" xmlns:xlink="http://www.w3.org/1999/xlink" x="0px" y="0px"
	 viewBox="0 0 16 16" style="enable-background:new 0 0 16 16;" xml:space="preserve">
<style type="text/css">
	.st0{fill-rule:evenodd;clip-rule:evenodd;fill:#FEFEFE;}
</style>
<g id="Fill_1">
	<g>
		<path class="st0" d="M15.9,4.1c0-1-0.2-1.5-0.3-1.8c-0.2-0.5-0.4-0.8-0.7-1.1c-0.3-0.3-0.7-0.6-1.1-0.7c-0.3-0.1-0.9-0.3-1.8-0.3
			C10.9,0,10.6,0,8,0C5.4,0,5.1,0,4.1,0.1c-1,0-1.5,0.2-1.8,0.3C1.8,0.6,1.5,0.8,1.1,1.1C0.8,1.5,0.6,1.8,0.4,2.2
			C0.3,2.6,0.1,3.1,0.1,4.1C0,5.1,0,5.4,0,8c0,2.6,0,2.9,0.1,3.9c0,1,0.2,1.5,0.3,1.8c0.2,0.5,0.4,0.8,0.7,1.1
			c0.3,0.3,0.7,0.6,1.1,0.7c0.3,0.1,0.9,0.3,1.8,0.3C5.1,16,5.4,16,8,16c2.6,0,2.9,0,3.9-0.1c1,0,1.5-0.2,1.8-0.3
			c0.5-0.2,0.8-0.4,1.1-0.7c0.3-0.3,0.6-0.7,0.7-1.1c0.1-0.3,0.3-0.9,0.3-1.8c0-1,0.1-1.3,0.1-3.9C16,5.4,16,5.1,15.9,4.1z M8,13
			c-2.8,0-5-2.2-5-5c0-2.8,2.2-5,5-5c2.8,0,5,2.2,5,5C13,10.8,10.8,13,8,13z M13.2,4C12.6,4,12,3.4,12,2.8s0.5-1.2,1.2-1.2
			c0.6,0,1.2,0.5,1.2,1.2S13.9,4,13.2,4z"/>
	</g>
</g>
</svg>
