<?xml version="1.0" encoding="utf-8"?>
<!-- Generator: Adobe Illustrator 21.0.0, SVG Export Plug-In . SVG Version: 6.00 Build 0)  -->
<svg version="1.1" xmlns="http://www.w3.org/2000/svg" xmlns:xlink="http://www.w3.org/1999/xlink" x="0px" y="0px"
	 viewBox="0 0 24 42" style="enable-background:new 0 0 24 42;" xml:space="preserve">
<style type="text/css">
	.st0{enable-background:new    ;}
	.st1{fill-rule:evenodd;clip-rule:evenodd;fill:#FFFFFF;}
</style>
<g id="Rectangle-91-Copy_1_" class="st0">
	<g id="Rectangle-91-Copy">
		<g>
			<path class="st1" d="M12,0C5.4,0,0,5.4,0,12v18c0,6.6,5.4,12,12,12c6.6,0,12-5.4,12-12V12C24,5.4,18.6,0,12,0z M22,30
				c0,5.5-4.5,10-10,10C6.5,40,2,35.5,2,30V12C2,6.5,6.5,2,12,2c5.5,0,10,4.5,10,10V30z"/>
		</g>
	</g>
</g>
<g id="Line-Copy-3_1_" class="st0">
	<g id="Line-Copy-3">
		<g>
			<path class="st1" d="M12,6c-0.6,0-1,0.4-1,1v4c0,0.6,0.4,1,1,1c0.6,0,1-0.4,1-1V7C13,6.4,12.6,6,12,6z"/>
		</g>
	</g>
</g>
</svg>
