<?xml version="1.0" encoding="utf-8"?>
<!-- Generator: Adobe Illustrator 21.0.0, SVG Export Plug-In . SVG Version: 6.00 Build 0)  -->
<svg version="1.1" id="special_1_" opacity="0.1" xmlns="http://www.w3.org/2000/svg" xmlns:xlink="http://www.w3.org/1999/xlink"
	 x="0px" y="0px" viewBox="0 0 586 232" style="enable-background:new 0 0 586 232;" xml:space="preserve">
<style type="text/css">
	.st0{fill-rule:evenodd;clip-rule:evenodd;fill:#534A40;}
</style>
<g id="special">
	<g>
		<path class="st0" d="M52.6,141.3c18.1-20.3-2.7-26.1-19.3-35.9c-6.8-4.1-7.8-9-2.7-16.1c6.1-8.5,12.9-13.7,21-17.6
			c5.9-2.9,19-8.3,26.6-7.8c6.8,0.7,3.7,9.3-0.2,13.2c-3.2,3.2,0,4.6,1.2,3.7c3.4-2.2,6.1-4.9,7.6-8.3c5.6-11.5-4.1-16.6-15.1-16.6
			c-17.6,0-49.5,15.9-52,34.9c-1.7,4.9-6.1,13.2-13.2,22.9c-1.7,2.7,1.2,4.9,3.4,2.2c4.4-6.3,8.3-12.2,11-16.8
			c1.5,3.7,4.6,6.3,8.3,8.8c4.6,3.2,18.3,8.3,18.3,15.1c0,14.2-18.1,28.1-30.3,31.7c-9,2.4-11.2-2.4-7.6-7.3c1.5-2,3.9-4.1,6.6-5.4
			c1.7-0.7,1.2-2.9-0.5-2.4c-4.6,2-9.3,4.6-11.7,7.1c-2.7,3.2-4.9,7.3-3.2,9.8c2.7,5.1,12.9,3.7,17.6,2.7
			C30.4,156.5,44.3,150.6,52.6,141.3z M145,79.6c-12.2-4.1-22,0.2-31.5,8.1c-8.8,6.8-15.4,17.6-22.9,28.1
			c4.4-10.5,8.1-20.3,14.2-29.8c6.3-10,7.3-17.1-3.4-17.1c-3.4,0-7.6,0.5-7.6,2.9c-0.5,12.9-12.9,43.2-24.4,73.4
			c-13.2,34.2-27.3,68.6-33.4,81c-4.9,10.5,15.6,2,17.1-1.5c2.9-5.4,4.9-11.5,7.1-18.1c2.2-6.3,0.2-9.3,2.4-15.9
			c4.9-14.9,10.7-32,14.9-41.7c14.4,4.4,37.3-6.3,48.8-13.7c12.2-8.3,31.7-26.4,29.3-44.9C154.8,85.2,150.4,81.6,145,79.6z
			 M138.9,104.3c-11,18.8-38.6,41-59.3,41c12.4-25.1,21.5-46.1,47.6-59.8C145.3,75.9,147,90.3,138.9,104.3z M357.1,64.7
			c2.4,0,8.1-9.3,8.1-12c0-4.9,6.1-13.4-3.9-5.4c-1.5,1.2-14.6,11-14.6,12.2C346.6,64.7,352.7,64.7,357.1,64.7z M503,113.8
			c30.5-25.4,59.3-53.9,79.3-88.8C591.1,9.1,583,0.6,572,0.6c-16.6,0-27.6,14.6-36.8,26.6c-12.4,16.4-33.1,55.5-42.3,83.5
			c-10.2,13.6-27.3,27.9-35.1,32.2c-7.8,4.1-12.7-1.5-11.2-12c1-7.8,5.9-22.9,14.6-35.4c2.2-3.9-7.3-5.9-9.8-5.9
			c-2.2,0-20.7,20.5-24.2,24.2c-6.3,6.8-17.3,16.1-23.7,21.5c-3.4,2.7-15.4,11.5-18.8,6.6c-7.6-10.7,12.7-33.9,19.5-40.3
			c12.7-11.2,29.8-21,42.5-21c4.6,0,9.5,0.5,12.2,4.6c1.2,0.5,1.5,0.5,1.5-1.2c0-2.4-1.7-4.9-4.1-6.6c-6.3-4.4-17.1-3.9-24.4-2
			c-12.8,3.1-43.8,21.9-55.2,40.7c-10.3,11.8-24,23-30.5,26.6c-8.1,4.1-12.9-1.5-11.2-12c0.7-7.8,7.3-20.7,14.6-35.4
			c3.7-7.6,6.3-12.2,4.9-15.1c-1.2-2.4-5.4-3.2-8.5-2.9c-3.4,0.7-5.9,6.8-8.5,14.4c-0.7,1.5-0.7,2.4-0.5,3.2
			c-3.1,4.7-8.2,11.8-14.8,20.1c-12,14.3-23.5,23.6-42.8,29.2c-13.9,3.9-28.1,2.4-22.4-15.6c6.6-22.2,36.8-47.1,49.3-47.1
			c2.4,0,3.7,2.7,3.7,4.9c0,1.5-1,3.2-1.2,4.9c-0.2,0.7,0,2,1,2.7c1.7,2.2,5.9-6.8,6.1-8.3c1.7-6.3-2-9.5-6.3-11
			c-15.3-5.1-44.4,16.5-57.7,33.4c-0.5,0.1-1.1,0.4-1.6,1c-8.8,13.4-24.4,26.6-42.5,33.9c-15.9,6.3-34.6,6.1-28.5-14.4
			c5.4-17.8,26.4-38.1,40.7-44.7c3.4-1.7,12.2-5.4,12.4,1.5c0.5,5.4-6.8,12.7-11,15.9c-9,7.3-22.7,15.1-30.5,15.9
			c-3.7,0.2-2,3.7,1.7,3.4c11-1,34.2-10.2,42.9-23.2c4.6-6.8,6.1-19.3-3.9-22.7c-18.3-6.1-56.1,25.9-63.4,42.5
			c-13.4,30.7,17.8,40.7,42.7,30.7c12.3-5.1,23.7-13.5,32.7-23.8c-5.1,20.6,11.3,30.2,32.4,26.4c24-4.1,40.1-19.6,54-38.3
			c-4.9,11-8.8,23.5-6.9,29c4.9,14.6,22.9,8.8,30.7,2.9c6.1-4.4,12.9-10.7,18.8-16.9c-0.5,4.2,0.5,8.3,3.4,12
			c3.7,4.9,10.5,8.3,15.6,8.3c19.5,0,42.7-34.2,46.8-36.1c-3.2,8.5-6.1,23.2-3.9,29.8c4.9,14.6,22.9,8.8,30.7,2.9
			c8.3-5.9,17.8-15.2,24.5-23.3c-0.9,3.7-1.4,7-1.6,9.8c-0.5,11.2,3.9,19.5,18.5,19.5c4.6,0,10.2-1.7,15.1-5.4
			c12.2-9,27.6-25.1,32.5-33.7c1.5-2.7-1.5-4.1-2.7-2.4c-8.3,11.7-26.4,28.1-35.9,33.2c-14.2,8.1-17.6-5.1-16.1-17.1
			C500,122.6,501.3,118.6,503,113.8z M513.5,87.2c5.6-11,12-23.4,14.6-28.3C538.6,40.1,551,22.5,565.9,11c10.7-8.1,16.3-2.4,9.8,9.5
			c-12.9,24.9-45.1,67.1-69.1,83.4C508.6,98.6,510.8,92.8,513.5,87.2z"/>
	</g>
</g>
</svg>
