<?xml version="1.0" encoding="utf-8"?>
<!-- Generator: Adobe Illustrator 21.0.0, SVG Export Plug-In . SVG Version: 6.00 Build 0)  -->
<svg version="1.1" id="Fill_1_1_" xmlns="http://www.w3.org/2000/svg" xmlns:xlink="http://www.w3.org/1999/xlink" x="0px" y="0px"
	 viewBox="0 0 32 32" style="enable-background:new 0 0 32 32;" xml:space="preserve">
<style type="text/css">
	.st0{fill-rule:evenodd;clip-rule:evenodd;fill:#FEFEFE;}
</style>
<g id="Fill_1">
	<g>
		<path class="st0" d="M25.8,0H6.2C2.8,0,0,2.8,0,6.2v19.6C0,29.2,2.8,32,6.2,32h19.5c3.4,0,6.2-2.8,6.2-6.2V6.2
			C32,2.8,29.2,0,25.8,0z M27.8,11.1c0,0.2,0,0.5,0,0.7c0,7.3-5.6,15.7-15.7,15.7c-3.1,0-6-0.9-8.5-2.5c0.4,0.1,0.9,0.1,1.3,0.1
			c2.6,0,5-0.9,6.9-2.4c-2.4,0-4.5-1.6-5.2-3.8C7,19,7.4,19,7.7,19c0.5,0,1-0.1,1.5-0.2c-2.5-0.5-4.4-2.7-4.4-5.4c0,0,0,0,0-0.1
			c0.7,0.4,1.6,0.7,2.5,0.7c-1.5-1-2.5-2.7-2.5-4.6c0-1,0.3-2,0.7-2.8c2.7,3.3,6.8,5.5,11.4,5.8c-0.1-0.4-0.1-0.8-0.1-1.3
			c0-3,2.5-5.5,5.5-5.5c1.6,0,3,0.7,4,1.7c1.3-0.2,2.4-0.7,3.5-1.3c-0.4,1.3-1.3,2.4-2.4,3c1.1-0.1,2.2-0.4,3.2-0.9
			C29.8,9.4,28.9,10.4,27.8,11.1z"/>
	</g>
</g>
</svg>
